<svg width="199" height="58" fill="none" xmlns="http://www.w3.org/2000/svg"><g clip-path="url(#clip0)" fill="#000"><path d="M0 22.3v4.4h4.3v-4.4H0zM20.2 7.8a7.7 7.7 0 00-6.3 3h-.1V0h-3.6v26.7h3.6v-9.1c0-3.7 2.2-6.3 5.6-6.3 3.2 0 5 2.3 5 5.5v10H28V16.1c0-5-3.2-8.4-7.8-8.4zm25.8.6h-8.3V1.9h-3.5v6.5H31v3.4h3.3V22c0 3 1.7 4.6 4.7 4.6h7v-3.4h-6.5c-1.2 0-1.9-.7-1.9-1.8v-9.7H46V8.4zm25.2-.5c-2.9 0-5 1.3-6.2 3.5A6.77 6.77 0 0059 8a6.2 6.2 0 00-5.4 3.1h-.1V8.4h-3.4v18.3h3.5v-9.4c0-3.4 1.8-6 4.6-6 2.5-.1 4 1.7 4 4.5v11H66V17c0-4.1 2.4-5.7 4.5-5.7 2.6 0 4 1.7 4 4.5v11H78V15.4c0-4.5-2.5-7.6-6.8-7.6zM82.8 22c0 3 1.7 4.7 4.8 4.7h3.5v-3.4h-3c-1.2 0-1.8-.6-1.8-1.8V0h-3.5v22zM50 34.1a8 8 0 00-6.6-3.2C38 31 34 35 34 40.6c0 5.7 4 9.7 9.3 9.6 3 0 5.2-1.4 6.6-3.3h.1v2.8h3.5V31.4H50v2.7zm-6.2 12.7a6 6 0 01-6.3-6.2 6 6 0 016.3-6.3 6 6 0 016.2 6.3 6 6 0 01-6.2 6.2zM76.5 38a9.2 9.2 0 00-9.3-7 9.4 9.4 0 00-9.7 9.6c0 5.4 3.8 9.6 9.7 9.6 4.8 0 8.4-3 9.3-7.2h-3.7c-.7 2.3-2.9 3.9-5.6 3.9a6 6 0 01-6.2-6.3 6 6 0 016.2-6.3c2.8 0 4.9 1.6 5.6 3.8h3.7zm18.8-3.9h-.1a8 8 0 00-6.6-3.2c-5.4 0-9.3 4-9.3 9.7 0 5.7 4 9.7 9.3 9.6 3 0 5.2-1.4 6.6-3.3h.1v2.8h3.5V31.4h-3.5v2.7zm-6.2 12.7a6 6 0 01-6.3-6.2 6 6 0 016.3-6.3 6 6 0 016.2 6.3 6 6 0 01-6.2 6.2zm29.7-12.5h-.1a8 8 0 00-6.6-3.4c-5.4 0-9.3 4-9.3 9.7 0 5.7 3.8 9.7 9.3 9.6a8 8 0 006.5-3.1h.2v2.6h3.5V23.1h-3.5v11.2zm-6.2 12.6a6 6 0 01-6.3-6.3 6 6 0 016.3-6.3 6 6 0 016.2 6.3 6 6 0 01-6.2 6.3zM135.5 31a9.3 9.3 0 00-9.4 9.6c0 5.2 3.6 9.6 9.5 9.6 4.3 0 7.8-2.3 9-6.2h-3.7c-.8 1.8-2.8 2.9-5.1 2.9-3.4 0-5.7-2.2-6-5H145c.4-6.2-3.4-11-9.5-11zm0 3.3c2.9 0 5 1.8 5.6 4.4H130a5.5 5.5 0 015.6-4.4zM170 31c-2.9 0-5 1.3-6.2 3.5h-.1a6.36 6.36 0 00-5.9-3.5 6.2 6.2 0 00-5.4 3h-.1v-2.6h-3.4v18.3h3.5v-9.4c0-3.4 1.9-5.9 4.6-6 2.6 0 4.1 1.8 4.1 4.6v10.8h3.5V40c0-4 2.5-5.7 4.6-5.7 2.5 0 4 1.8 4 4.6v10.8h3.6V38.5c0-4.4-2.5-7.5-6.9-7.5zm19.4 15.8L183 31.4h-4l8.5 20v.1c-.7 1.5-1.3 2.1-3 2.1h-4.3v3.5h4.3c3.2 0 5-1.4 6.1-4.5l8-21.2h-3.5l-5.8 15.4z"/></g><defs><clipPath id="clip0"><path fill="#fff" d="M0 0h199v57.2H0z"/></clipPath></defs></svg>